<svg width="150" height="150" viewBox="0 0 150 150" fill="none" xmlns="http://www.w3.org/2000/svg">
  <g transform="matrix(0.85 0 0 0.85 24 10)">
    <!-- The Two Leaves -->
    <path d="M 70 15 C 65 -5 70 -25 85 -25 C 95 -20 95 0 70 15 Z" fill="#699f36" />
    <path d="M 75 20 C 85 10 105 0 115 10 C 115 20 95 30 75 20 Z" fill="#699f36" />
    
    <!-- Graduation Cap Top -->
    <path d="M 60 15 L 105 25 L 60 35 L 15 25 Z" fill="#2d2d2d" />
    
    <!-- Cap Bottom -->
    <path d="M 35 30 L 35 40 Q 60 47 85 40 L 85 30 Q 60 38 35 30 Z" fill="#2d2d2d" />

    <!-- Orange Circular 'e' -->
    <path d="M 22 82 L 95 82" stroke="#e88100" stroke-width="12" stroke-linecap="butt" />
    <path d="M 95 82 C 95 50 78 43 60 43 C 40 43 22 58 22 82 C 22 108 40 123 60 123 C 78 123 90 112 95 97" fill="none" stroke="#e88100" stroke-width="12" stroke-linecap="butt" />

    <!-- Book base -->
    <path d="M 10 128 Q 35 148 60 133 Q 85 148 110 128 L 110 133 Q 85 153 60 140 Q 35 153 10 133 Z" fill="#2d2d2d" />
    <path d="M 15 136 Q 35 156 60 141 Q 85 156 105 136 L 105 141 Q 85 161 60 146 Q 35 161 15 141 Z" fill="#2d2d2d" />
  </g>
</svg>
